# xmcd
#
# Track frame offsets: 
#        150
#        11982
#        23342
#        33154
#        45865
#        59651
#        70011
#        81776
#        97083
#        112209
#        122476
#        132929
#        141320
#        153049
#        162790
#        176009
#        182118
#        194514
#
# Disc length: 2790 seconds
#
# Revision: 0
# Processed by: cddbd v1.5.2PL0 Copyright (c) Steve Scherf et al.
# Submitted via: ExactAudioCopy v1.0b3
#
DISCID=ef0ae412
DTITLE=Various Artist - Lonesome cowboys - CD2
DYEAR=1900
DGENRE=Country
TTITLE0=Roy Drusky - Take this chains from my heart
TTITLE1=Don Gibson - Sea of heartbreak
TTITLE2=Faron Young - Sweet dream
TTITLE3=Willie Nelson - To all the girls i've loved before
TTITLE4=Tennessee - Train to Santa Fe
TTITLE5=Boxcar Willy - Six days of the road
TTITLE6=Glen Campbell - Ben Findon - Mrs Mac
TTITLE7=Tom Simmons - Achy breaky heart
TTITLE8=Sammy's Saloon - Highway calling
TTITLE9=John Denver - The eagle and the hawk
TTITLE10=Johnny Russel - Act naturally
TTITLE11=Waylon Jennings - Abilene
TTITLE12=Stonewall Jackson - Waterloo
TTITLE13=Eddie Jones - Deep in the heart of Texas
TTITLE14=George Jones - Wedding bells
TTITLE15=Merle Haggard - The fighting' side of me
TTITLE16=Kenny Rogers - Elvira
TTITLE17=Highway Cowboys - Bonjo fever
EXTD=
EXTT0=
EXTT1=
EXTT2=
EXTT3=
EXTT4=
EXTT5=
EXTT6=
EXTT7=
EXTT8=
EXTT9=
EXTT10=
EXTT11=
EXTT12=
EXTT13=
EXTT14=
EXTT15=
EXTT16=
EXTT17=
PLAYORDER=
